<svg width="70" height="70" viewBox="0 0 70 70" fill="none" xmlns="http://www.w3.org/2000/svg">
<path d="M9.92578 6.5625L14.4375 57.5996L35 63.4375L55.4805 57.5996L60.0811 6.5625H9.92578ZM50.5996 18.6689L50.2715 21.8955L50.1553 23.2285H26.1338L26.6943 29.668H49.6016L49.376 31.3291L47.9268 47.8857L47.8105 48.9932L35.0273 52.5205V52.541H34.9453L34.9248 52.5479V52.541H34.918L22.0254 48.9863L21.2461 39.1016H27.4736L27.918 44.1055L34.918 45.999H34.9453L41.918 44.1123L42.6973 36.0049H34.9248V35.998H20.918L19.3594 18.6689L19.2432 17.0078H50.709L50.5996 18.6689V18.6689Z" fill="white"/>
</svg>
